<svg xmlns="http://www.w3.org/2000/svg" viewBox="0 0 1920 1080" preserveAspectRatio="xMidYMid slice">
  <defs>
    <linearGradient id="bg2" x1="0%" y1="0%" x2="100%" y2="100%">
      <stop offset="0%" stop-color="#173148"/>
      <stop offset="100%" stop-color="#2c89c7"/>
    </linearGradient>
    <radialGradient id="glow" cx="50%" cy="35%" r="65%">
      <stop offset="0%" stop-color="#b8e4ff" stop-opacity="0.22"/>
      <stop offset="100%" stop-color="#b8e4ff" stop-opacity="0"/>
    </radialGradient>
  </defs>
  <rect width="1920" height="1080" fill="url(#bg2)"/>
  <rect width="1920" height="1080" fill="url(#glow)"/>
  <g fill="none" stroke="#d6efff" stroke-opacity="0.16" stroke-width="2">
    <path d="M180 860 L460 540 L730 720 L1020 380 L1330 580 L1680 300"/>
    <path d="M140 930 L430 600 L720 790 L1040 450 L1320 650 L1720 360"/>
    <path d="M220 980 L500 680 L760 860 L1060 560 L1360 760 L1760 470"/>
  </g>
  <g fill="#ffffff" fill-opacity="0.09">
    <rect x="260" y="250" width="150" height="420" rx="18"/>
    <rect x="460" y="320" width="150" height="350" rx="18"/>
    <rect x="660" y="210" width="150" height="460" rx="18"/>
    <rect x="860" y="390" width="150" height="280" rx="18"/>
    <rect x="1060" y="280" width="150" height="390" rx="18"/>
  </g>
</svg>
